M48
METRIC,LZ,000.000
;FILE_FORMAT=3:3
;TYPE=PLATED
;Layer: PTH_Through
;EasyEDA v6.5.22, 2023-01-09 20:04:38
;76fc7cb04a654140b8b759559db01802,79e341a08f52490f8cd84a0f7bb9d38b,10
;Gerber Generator version 0.2
;Holesize 1 = 0.701 mm
T01C0.701
;Holesize 2 = 0.762 mm
T02C0.762
;Holesize 3 = 0.849 mm
T03C0.849
;Holesize 4 = 0.900 mm
T04C0.900
;Holesize 5 = 0.915 mm
T05C0.915
;Holesize 6 = 1.016 mm
T06C1.016
;Holesize 7 = 1.199 mm
T07C1.199
;Holesize 8 = 1.200 mm
T08C1.200
;Holesize 9 = 1.301 mm
T09C1.301
%
G05
G90
T01
X029961Y021971
X028459Y021971
T02
X011938Y035052
X011938Y037552
X011938Y032552
T03
X049149Y061595
X046609Y061595
X044069Y061595
X041529Y061595
X038989Y061595
X036449Y061595
X033909Y061595
X031369Y061595
X028829Y061595
X026289Y061595
X070993Y061595
X068453Y061595
X065913Y061595
X063373Y061595
X060833Y061595
X058293Y061595
X055753Y061595
X053213Y061595
X058293Y013335
X060833Y013335
X063373Y013335
X065913Y013335
X068453Y013335
X070993Y013335
X035433Y013335
X037973Y013335
X040513Y013335
X043053Y013335
X045593Y013335
X048133Y013335
X050673Y013335
X053213Y013335
T04
X025654Y017018
X033274Y017018
X011684Y026543
X019304Y026543
T05
X011811Y059563
X011811Y057023
X011811Y054483
X011811Y051943
T06
X062992Y022860
X065532Y022860
X068072Y022860
X062865Y027940
X065405Y027940
X067945Y027940
X062992Y032258
X065532Y032258
X068072Y032258
X062992Y037084
X065532Y037084
X068072Y037084
X062992Y041910
X065532Y041910
X068072Y041910
X062357Y047752
X064897Y047752
X067437Y047752
T07
X022554Y024693
T08
X029337Y029596
X031877Y029586
X026797Y029596
T09
X022554Y020193
X016054Y020193
X016054Y024693
X019304Y026543
M30
