G04 Layer: TopLayer*
G04 EasyEDA v6.5.22, 2023-01-09 20:04:38*
G04 76fc7cb04a654140b8b759559db01802,79e341a08f52490f8cd84a0f7bb9d38b,10*
G04 Gerber Generator version 0.2*
G04 Scale: 100 percent, Rotated: No, Reflected: No *
G04 Dimensions in millimeters *
G04 leading zeros omitted , absolute positions ,4 integer and 5 decimal *
%FSLAX45Y45*%
%MOMM*%

%ADD10C,0.2540*%
%ADD11C,1.8796*%
%ADD12R,1.4224X1.7069*%
%ADD13C,1.5240*%
%ADD14O,1.7999964X2.5999948*%
%ADD15R,1.8000X2.6000*%
%ADD16C,2.0000*%
%ADD17C,1.0000*%

%LPD*%
D10*
X6553202Y3361537D02*
G01*
X6553202Y3225800D01*
X6553202Y3708400D02*
G01*
X6553202Y3361537D01*
X6553202Y3361537D02*
G01*
X3111096Y3361537D01*
X2797609Y3048050D01*
X2797609Y2959607D01*
X2679702Y2959607D02*
G01*
X2797609Y2959607D01*
X6489702Y4775200D02*
G01*
X6489702Y4254500D01*
X6553202Y4191000D01*
X4813300Y1333500D02*
G01*
X4726967Y1333500D01*
X4559300Y1333500D02*
G01*
X4472967Y1333500D01*
X6083300Y1333500D02*
G01*
X5996967Y1333500D01*
X1193802Y3505174D02*
G01*
X1898449Y2800527D01*
X4579444Y2800527D01*
X5996967Y1383004D01*
X5996967Y1333500D01*
X2628900Y6159474D02*
G01*
X2542567Y6159474D01*
X2542567Y6159474D01*
X1181102Y5448300D02*
G01*
X1831393Y5448300D01*
X2542567Y6159474D01*
X2882900Y6159474D02*
G01*
X2796567Y6159474D01*
X2796567Y6159474D01*
X1181102Y5194300D02*
G01*
X1880897Y5194300D01*
X2796567Y6109970D01*
X2796567Y6159474D01*
X6629910Y2958592D02*
G01*
X6794502Y2794000D01*
X3187727Y2958592D02*
G01*
X6629910Y2958592D01*
X6807202Y3225800D02*
G01*
X6629910Y3048507D01*
X6629910Y2958592D01*
X6807202Y3708400D02*
G01*
X6807202Y3225800D01*
X6743702Y4775200D02*
G01*
X6807202Y4711700D01*
X6807202Y4191000D01*
X1930400Y2654300D02*
G01*
X3455670Y2654300D01*
X4726967Y1383004D01*
X4726967Y1333500D01*
X1605409Y2469286D02*
G01*
X2598676Y1476019D01*
X4379953Y1476019D01*
X4472967Y1383004D01*
X4472967Y1333500D01*
D11*
G01*
X2565400Y1701800D03*
G01*
X3327400Y1701800D03*
G01*
X6299200Y2286000D03*
G01*
X6553200Y2286000D03*
G01*
X6807200Y2286000D03*
G01*
X6286500Y2794000D03*
G01*
X6540500Y2794000D03*
G01*
X6794500Y2794000D03*
G01*
X6299200Y3225800D03*
G01*
X6553200Y3225800D03*
G01*
X6807200Y3225800D03*
G01*
X6299200Y3708400D03*
G01*
X6553200Y3708400D03*
G01*
X6807200Y3708400D03*
G01*
X6299200Y4191000D03*
G01*
X6553200Y4191000D03*
G01*
X6807200Y4191000D03*
G01*
X6235700Y4775200D03*
G01*
X6489700Y4775200D03*
G01*
X6743700Y4775200D03*
D12*
G01*
X4914900Y6159500D03*
G01*
X4660900Y6159474D03*
G01*
X4406900Y6159474D03*
G01*
X4152900Y6159474D03*
G01*
X3898900Y6159474D03*
G01*
X3644900Y6159474D03*
G01*
X3390900Y6159474D03*
G01*
X3136900Y6159474D03*
G01*
X2882900Y6159474D03*
G01*
X2628900Y6159474D03*
G01*
X7099300Y6159474D03*
G01*
X6845300Y6159474D03*
G01*
X6591300Y6159474D03*
G01*
X6337300Y6159500D03*
G01*
X6083300Y6159500D03*
G01*
X5829300Y6159500D03*
G01*
X5575300Y6159500D03*
G01*
X5321300Y6159500D03*
G01*
X5829300Y1333500D03*
G01*
X6083300Y1333500D03*
G01*
X6337300Y1333500D03*
G01*
X6591300Y1333500D03*
G01*
X6845300Y1333500D03*
G01*
X7099300Y1333500D03*
G01*
X3543300Y1333500D03*
G01*
X3797300Y1333500D03*
G01*
X4051300Y1333500D03*
G01*
X4305300Y1333500D03*
G01*
X4559300Y1333500D03*
G01*
X4813300Y1333500D03*
G01*
X5067300Y1333500D03*
G01*
X5321300Y1333500D03*
D13*
G01*
X1193800Y3505174D03*
G01*
X1193800Y3755186D03*
G01*
X1193800Y3255187D03*
D14*
G01*
X2933700Y2959582D03*
G01*
X3187725Y2958592D03*
D15*
G01*
X2679700Y2959607D03*
D16*
G01*
X2255393Y2469286D03*
G01*
X2255393Y2019300D03*
G01*
X1605406Y2019300D03*
G01*
X1605406Y2469286D03*
G01*
X1930400Y2654300D03*
D13*
G01*
X1181100Y5956300D03*
G01*
X1181100Y5702300D03*
G01*
X1181100Y5448300D03*
G01*
X1181100Y5194300D03*
D17*
G01*
X2996056Y2197100D03*
G01*
X2845943Y2197100D03*
D11*
G01*
X1168400Y2654300D03*
G01*
X1930400Y2654300D03*
M02*
