G04 Layer: TopSilkscreenLayer*
G04 EasyEDA v6.5.22, 2023-01-09 20:04:38*
G04 76fc7cb04a654140b8b759559db01802,79e341a08f52490f8cd84a0f7bb9d38b,10*
G04 Gerber Generator version 0.2*
G04 Scale: 100 percent, Rotated: No, Reflected: No *
G04 Dimensions in millimeters *
G04 leading zeros omitted , absolute positions ,4 integer and 5 decimal *
%FSLAX45Y45*%
%MOMM*%

%ADD10C,0.2032*%
%ADD11C,0.1524*%
%ADD12C,0.2540*%
%ADD13C,0.2540*%
%ADD14C,0.3048*%
%ADD15C,0.0800*%
%ADD16C,0.4000*%
%ADD17C,0.0177*%

%LPD*%
D10*
X2559558Y2031492D02*
G01*
X2559558Y1865376D01*
X2476500Y1948434D02*
G01*
X2642870Y1948434D01*
X3238500Y1935734D02*
G01*
X3404870Y1935734D01*
D11*
X2743200Y1956815D02*
G01*
X2743200Y1847850D01*
X2743200Y1956815D02*
G01*
X2789936Y1956815D01*
X2805429Y1951736D01*
X2810763Y1946402D01*
X2815843Y1935987D01*
X2815843Y1925573D01*
X2810763Y1915160D01*
X2805429Y1910079D01*
X2789936Y1905000D01*
X2743200Y1905000D02*
G01*
X2789936Y1905000D01*
X2805429Y1899665D01*
X2810763Y1894586D01*
X2815843Y1884171D01*
X2815843Y1868423D01*
X2810763Y1858010D01*
X2805429Y1852929D01*
X2789936Y1847850D01*
X2743200Y1847850D01*
X2891790Y1956815D02*
G01*
X2850134Y1847850D01*
X2891790Y1956815D02*
G01*
X2933445Y1847850D01*
X2865881Y1884171D02*
G01*
X2917697Y1884171D01*
X3004058Y1956815D02*
G01*
X3004058Y1847850D01*
X2967736Y1956815D02*
G01*
X3040379Y1956815D01*
X3110991Y1956815D02*
G01*
X3110991Y1847850D01*
X3074670Y1956815D02*
G01*
X3147313Y1956815D01*
X6553200Y2553715D02*
G01*
X6553200Y2444750D01*
X6553200Y2553715D02*
G01*
X6594856Y2444750D01*
X6636258Y2553715D02*
G01*
X6594856Y2444750D01*
X6636258Y2553715D02*
G01*
X6636258Y2444750D01*
X6670547Y2532887D02*
G01*
X6680961Y2538221D01*
X6696709Y2553715D01*
X6696709Y2444750D01*
X6540500Y3061715D02*
G01*
X6540500Y2952750D01*
X6540500Y3061715D02*
G01*
X6582156Y2952750D01*
X6623558Y3061715D02*
G01*
X6582156Y2952750D01*
X6623558Y3061715D02*
G01*
X6623558Y2952750D01*
X6663181Y3035807D02*
G01*
X6663181Y3040887D01*
X6668261Y3051302D01*
X6673595Y3056636D01*
X6684009Y3061715D01*
X6704584Y3061715D01*
X6714997Y3056636D01*
X6720331Y3051302D01*
X6725411Y3040887D01*
X6725411Y3030473D01*
X6720331Y3020060D01*
X6709918Y3004565D01*
X6657847Y2952750D01*
X6730745Y2952750D01*
X6553200Y3493515D02*
G01*
X6553200Y3384550D01*
X6553200Y3493515D02*
G01*
X6594856Y3384550D01*
X6636258Y3493515D02*
G01*
X6594856Y3384550D01*
X6636258Y3493515D02*
G01*
X6636258Y3384550D01*
X6680961Y3493515D02*
G01*
X6738111Y3493515D01*
X6706870Y3451860D01*
X6722618Y3451860D01*
X6733031Y3446779D01*
X6738111Y3441700D01*
X6743445Y3425952D01*
X6743445Y3415537D01*
X6738111Y3400044D01*
X6727697Y3389629D01*
X6712204Y3384550D01*
X6696709Y3384550D01*
X6680961Y3389629D01*
X6675881Y3394710D01*
X6670547Y3405123D01*
X6553200Y3976115D02*
G01*
X6553200Y3867150D01*
X6553200Y3976115D02*
G01*
X6594856Y3867150D01*
X6636258Y3976115D02*
G01*
X6594856Y3867150D01*
X6636258Y3976115D02*
G01*
X6636258Y3867150D01*
X6722618Y3976115D02*
G01*
X6670547Y3903471D01*
X6748525Y3903471D01*
X6722618Y3976115D02*
G01*
X6722618Y3867150D01*
X6489700Y4523231D02*
G01*
X6489700Y4414265D01*
X6489700Y4523231D02*
G01*
X6531356Y4414265D01*
X6572758Y4523231D02*
G01*
X6531356Y4414265D01*
X6572758Y4523231D02*
G01*
X6572758Y4414265D01*
X6669531Y4523231D02*
G01*
X6617461Y4523231D01*
X6612381Y4476495D01*
X6617461Y4481576D01*
X6633209Y4486910D01*
X6648704Y4486910D01*
X6664197Y4481576D01*
X6674611Y4471415D01*
X6679945Y4455668D01*
X6679945Y4445254D01*
X6674611Y4429760D01*
X6664197Y4419345D01*
X6648704Y4414265D01*
X6633209Y4414265D01*
X6617461Y4419345D01*
X6612381Y4424426D01*
X6607047Y4434839D01*
X6438900Y5042915D02*
G01*
X6438900Y4933950D01*
X6438900Y5042915D02*
G01*
X6480556Y4933950D01*
X6521958Y5042915D02*
G01*
X6480556Y4933950D01*
X6521958Y5042915D02*
G01*
X6521958Y4933950D01*
X6618731Y5027421D02*
G01*
X6613397Y5037836D01*
X6597904Y5042915D01*
X6587490Y5042915D01*
X6571995Y5037836D01*
X6561581Y5022087D01*
X6556247Y4996179D01*
X6556247Y4970271D01*
X6561581Y4949444D01*
X6571995Y4939029D01*
X6587490Y4933950D01*
X6592570Y4933950D01*
X6608318Y4939029D01*
X6618731Y4949444D01*
X6623811Y4964937D01*
X6623811Y4970271D01*
X6618731Y4985765D01*
X6608318Y4996179D01*
X6592570Y5001260D01*
X6587490Y5001260D01*
X6571995Y4996179D01*
X6561581Y4985765D01*
X6556247Y4970271D01*
X4178300Y6554228D02*
G01*
X4178300Y6445262D01*
X4178300Y6554228D02*
G01*
X4225036Y6554228D01*
X4240529Y6549148D01*
X4245863Y6543814D01*
X4250943Y6533400D01*
X4250943Y6517906D01*
X4245863Y6507492D01*
X4240529Y6502412D01*
X4225036Y6497078D01*
X4178300Y6497078D01*
X4285234Y6533400D02*
G01*
X4295647Y6538734D01*
X4311395Y6554228D01*
X4311395Y6445262D01*
X4521454Y1600466D02*
G01*
X4468368Y1600466D01*
X4463034Y1552714D01*
X4468368Y1558048D01*
X4484370Y1563382D01*
X4500118Y1563382D01*
X4516120Y1558048D01*
X4526788Y1547380D01*
X4532122Y1531378D01*
X4532122Y1520710D01*
X4526788Y1504962D01*
X4516120Y1494294D01*
X4500118Y1488960D01*
X4484370Y1488960D01*
X4468368Y1494294D01*
X4463034Y1499628D01*
X4457700Y1510042D01*
X4567174Y1600466D02*
G01*
X4609591Y1488960D01*
X4652009Y1600466D02*
G01*
X4609591Y1488960D01*
X5775706Y1552968D02*
G01*
X5748020Y1480070D01*
X5775706Y1552968D02*
G01*
X5803391Y1480070D01*
X5758434Y1504454D02*
G01*
X5792977Y1504454D01*
X5847079Y1552968D02*
G01*
X5836665Y1549412D01*
X5829808Y1538998D01*
X5826252Y1521726D01*
X5826252Y1511312D01*
X5829808Y1494040D01*
X5836665Y1483626D01*
X5847079Y1480070D01*
X5853938Y1480070D01*
X5864352Y1483626D01*
X5871209Y1494040D01*
X5874765Y1511312D01*
X5874765Y1521726D01*
X5871209Y1538998D01*
X5864352Y1549412D01*
X5853938Y1552968D01*
X5847079Y1552968D01*
X5855715Y1868182D02*
G01*
X5803900Y1732546D01*
X5855715Y1868182D02*
G01*
X5907277Y1732546D01*
X5823204Y1777758D02*
G01*
X5887974Y1777758D01*
X5949950Y1868182D02*
G01*
X5949950Y1732546D01*
X5949950Y1868182D02*
G01*
X6040627Y1732546D01*
X6040627Y1868182D02*
G01*
X6040627Y1732546D01*
X6134861Y1868182D02*
G01*
X6083300Y1732546D01*
X6134861Y1868182D02*
G01*
X6186677Y1732546D01*
X6102604Y1777758D02*
G01*
X6167374Y1777758D01*
X6229350Y1868182D02*
G01*
X6229350Y1732546D01*
X6229350Y1732546D02*
G01*
X6306820Y1732546D01*
X6388354Y1868182D02*
G01*
X6375400Y1861832D01*
X6362445Y1848878D01*
X6356095Y1835924D01*
X6349491Y1816620D01*
X6349491Y1784362D01*
X6356095Y1764804D01*
X6362445Y1751850D01*
X6375400Y1738896D01*
X6388354Y1732546D01*
X6414261Y1732546D01*
X6427215Y1738896D01*
X6440170Y1751850D01*
X6446520Y1764804D01*
X6453124Y1784362D01*
X6453124Y1816620D01*
X6446520Y1835924D01*
X6440170Y1848878D01*
X6427215Y1861832D01*
X6414261Y1868182D01*
X6388354Y1868182D01*
X6592570Y1835924D02*
G01*
X6586220Y1848878D01*
X6573265Y1861832D01*
X6560311Y1868182D01*
X6534404Y1868182D01*
X6521450Y1861832D01*
X6508750Y1848878D01*
X6502145Y1835924D01*
X6495795Y1816620D01*
X6495795Y1784362D01*
X6502145Y1764804D01*
X6508750Y1751850D01*
X6521450Y1738896D01*
X6534404Y1732546D01*
X6560311Y1732546D01*
X6573265Y1738896D01*
X6586220Y1751850D01*
X6592570Y1764804D01*
X6592570Y1784362D01*
X6560311Y1784362D02*
G01*
X6592570Y1784362D01*
X6734809Y1868182D02*
G01*
X6734809Y1732546D01*
X6777481Y1868182D02*
G01*
X6777481Y1732546D01*
X6777481Y1868182D02*
G01*
X6868159Y1732546D01*
X6868159Y1868182D02*
G01*
X6868159Y1732546D01*
X4905756Y5027942D02*
G01*
X4813300Y4785626D01*
X4905756Y5027942D02*
G01*
X4997958Y4785626D01*
X4847843Y4866398D02*
G01*
X4963413Y4866398D01*
X5074158Y4947170D02*
G01*
X5074158Y4785626D01*
X5074158Y4878082D02*
G01*
X5085841Y4912626D01*
X5108956Y4935740D01*
X5132070Y4947170D01*
X5166613Y4947170D01*
X5381243Y5027942D02*
G01*
X5381243Y4785626D01*
X5381243Y4912626D02*
G01*
X5358129Y4935740D01*
X5335270Y4947170D01*
X5300472Y4947170D01*
X5277358Y4935740D01*
X5254243Y4912626D01*
X5242813Y4878082D01*
X5242813Y4854968D01*
X5254243Y4820170D01*
X5277358Y4797056D01*
X5300472Y4785626D01*
X5335270Y4785626D01*
X5358129Y4797056D01*
X5381243Y4820170D01*
X5457443Y4947170D02*
G01*
X5457443Y4831854D01*
X5469127Y4797056D01*
X5492241Y4785626D01*
X5526786Y4785626D01*
X5549900Y4797056D01*
X5584443Y4831854D01*
X5584443Y4947170D02*
G01*
X5584443Y4785626D01*
X5660643Y5027942D02*
G01*
X5672327Y5016512D01*
X5683758Y5027942D01*
X5672327Y5039626D01*
X5660643Y5027942D01*
X5672327Y4947170D02*
G01*
X5672327Y4785626D01*
X5759958Y4947170D02*
G01*
X5759958Y4785626D01*
X5759958Y4900942D02*
G01*
X5794756Y4935740D01*
X5817870Y4947170D01*
X5852413Y4947170D01*
X5875527Y4935740D01*
X5886958Y4900942D01*
X5886958Y4785626D01*
X6021070Y4947170D02*
G01*
X5997956Y4935740D01*
X5974841Y4912626D01*
X5963158Y4878082D01*
X5963158Y4854968D01*
X5974841Y4820170D01*
X5997956Y4797056D01*
X6021070Y4785626D01*
X6055613Y4785626D01*
X6078727Y4797056D01*
X6101841Y4820170D01*
X6113272Y4854968D01*
X6113272Y4878082D01*
X6101841Y4912626D01*
X6078727Y4935740D01*
X6055613Y4947170D01*
X6021070Y4947170D01*
X3124454Y5939294D02*
G01*
X3012947Y5981712D01*
X3124454Y5939294D02*
G01*
X3012947Y5896622D01*
X3050031Y5965710D02*
G01*
X3050031Y5912624D01*
X3124454Y5861570D02*
G01*
X3012947Y5861570D01*
X3124454Y5861570D02*
G01*
X3124454Y5813818D01*
X3119120Y5798070D01*
X3113786Y5792736D01*
X3103118Y5787402D01*
X3092450Y5787402D01*
X3082036Y5792736D01*
X3076702Y5798070D01*
X3071368Y5813818D01*
X3071368Y5861570D01*
X3071368Y5824486D02*
G01*
X3012947Y5787402D01*
X3124454Y5752350D02*
G01*
X3012947Y5752350D01*
X3124454Y5752350D02*
G01*
X3124454Y5683262D01*
X3071368Y5752350D02*
G01*
X3071368Y5709678D01*
X3012947Y5752350D02*
G01*
X3012947Y5683262D01*
X3124454Y5648210D02*
G01*
X3012947Y5648210D01*
X3124454Y5648210D02*
G01*
X3124454Y5579122D01*
X3071368Y5648210D02*
G01*
X3071368Y5605792D01*
X3354324Y5914656D02*
G01*
X3364991Y5919990D01*
X3375659Y5930658D01*
X3380993Y5941326D01*
X3380993Y5962662D01*
X3375659Y5973076D01*
X3364991Y5983744D01*
X3354324Y5989078D01*
X3338575Y5994412D01*
X3311906Y5994412D01*
X3295904Y5989078D01*
X3285490Y5983744D01*
X3274822Y5973076D01*
X3269488Y5962662D01*
X3269488Y5941326D01*
X3274822Y5930658D01*
X3285490Y5919990D01*
X3295904Y5914656D01*
X3311906Y5914656D01*
X3311906Y5941326D02*
G01*
X3311906Y5914656D01*
X3380993Y5879604D02*
G01*
X3269488Y5879604D01*
X3380993Y5879604D02*
G01*
X3269488Y5805436D01*
X3380993Y5805436D02*
G01*
X3269488Y5805436D01*
X3380993Y5770384D02*
G01*
X3269488Y5770384D01*
X3380993Y5770384D02*
G01*
X3380993Y5733046D01*
X3375659Y5717298D01*
X3364991Y5706630D01*
X3354324Y5701296D01*
X3338575Y5695962D01*
X3311906Y5695962D01*
X3295904Y5701296D01*
X3285490Y5706630D01*
X3274822Y5717298D01*
X3269488Y5733046D01*
X3269488Y5770384D01*
X6857745Y5459996D02*
G01*
X6969252Y5459996D01*
X6857745Y5422912D02*
G01*
X6857745Y5497334D01*
X6857745Y5532386D02*
G01*
X6969252Y5606554D01*
X6857745Y5606554D02*
G01*
X6969252Y5532386D01*
X7111745Y5422912D02*
G01*
X7223252Y5422912D01*
X7111745Y5422912D02*
G01*
X7111745Y5470664D01*
X7117079Y5486666D01*
X7122413Y5492000D01*
X7133081Y5497334D01*
X7143750Y5497334D01*
X7154163Y5492000D01*
X7159497Y5486666D01*
X7164831Y5470664D01*
X7164831Y5422912D01*
X7164831Y5459996D02*
G01*
X7223252Y5497334D01*
X7111745Y5532386D02*
G01*
X7223252Y5606554D01*
X7111745Y5606554D02*
G01*
X7223252Y5532386D01*
X4813300Y4667770D02*
G01*
X4813300Y4468634D01*
X4826508Y4428756D01*
X4853177Y4402340D01*
X4893056Y4389132D01*
X4919472Y4389132D01*
X4959350Y4402340D01*
X4986020Y4428756D01*
X4999227Y4468634D01*
X4999227Y4667770D01*
X5086858Y4667770D02*
G01*
X5086858Y4389132D01*
X5086858Y4667770D02*
G01*
X5272786Y4389132D01*
X5272786Y4667770D02*
G01*
X5272786Y4389132D01*
X5439918Y4667770D02*
G01*
X5413502Y4654562D01*
X5386831Y4627892D01*
X5373624Y4601476D01*
X5360415Y4561598D01*
X5360415Y4495304D01*
X5373624Y4455426D01*
X5386831Y4428756D01*
X5413502Y4402340D01*
X5439918Y4389132D01*
X5493004Y4389132D01*
X5519674Y4402340D01*
X5546090Y4428756D01*
X5559552Y4455426D01*
X5572759Y4495304D01*
X5572759Y4561598D01*
X5559552Y4601476D01*
X5546090Y4627892D01*
X5519674Y4654562D01*
X5493004Y4667770D01*
X5439918Y4667770D01*
X4012945Y1524012D02*
G01*
X4124452Y1524012D01*
X4012945Y1524012D02*
G01*
X4012945Y1571764D01*
X4018279Y1587766D01*
X4023613Y1593100D01*
X4034281Y1598434D01*
X4044950Y1598434D01*
X4055363Y1593100D01*
X4060697Y1587766D01*
X4066031Y1571764D01*
X4066031Y1524012D01*
X4066031Y1561096D02*
G01*
X4124452Y1598434D01*
X4012945Y1633486D02*
G01*
X4124452Y1633486D01*
X4012945Y1633486D02*
G01*
X4012945Y1702574D01*
X4066031Y1633486D02*
G01*
X4066031Y1675904D01*
X4124452Y1633486D02*
G01*
X4124452Y1702574D01*
X4028947Y1811794D02*
G01*
X4018279Y1801126D01*
X4012945Y1785378D01*
X4012945Y1764042D01*
X4018279Y1748040D01*
X4028947Y1737626D01*
X4039615Y1737626D01*
X4050029Y1742706D01*
X4055363Y1748040D01*
X4060697Y1758708D01*
X4071365Y1790712D01*
X4076700Y1801126D01*
X4082034Y1806460D01*
X4092702Y1811794D01*
X4108450Y1811794D01*
X4119118Y1801126D01*
X4124452Y1785378D01*
X4124452Y1764042D01*
X4119118Y1748040D01*
X4108450Y1737626D01*
X4012945Y1846846D02*
G01*
X4124452Y1846846D01*
X4012945Y1846846D02*
G01*
X4012945Y1915934D01*
X4066031Y1846846D02*
G01*
X4066031Y1889518D01*
X4124452Y1846846D02*
G01*
X4124452Y1915934D01*
X4012945Y1988070D02*
G01*
X4124452Y1988070D01*
X4012945Y1950986D02*
G01*
X4012945Y2025408D01*
X4254500Y1522996D02*
G01*
X4254500Y1581416D01*
X4296918Y1549412D01*
X4296918Y1565414D01*
X4302252Y1576082D01*
X4307586Y1581416D01*
X4323588Y1586750D01*
X4334256Y1586750D01*
X4350004Y1581416D01*
X4360672Y1570748D01*
X4366006Y1554746D01*
X4366006Y1538998D01*
X4360672Y1522996D01*
X4355338Y1517662D01*
X4344924Y1512328D01*
X4254500Y1621802D02*
G01*
X4366006Y1664220D01*
X4254500Y1706638D02*
G01*
X4366006Y1664220D01*
X4254500Y1752358D02*
G01*
X4254500Y1810778D01*
X4296918Y1779028D01*
X4296918Y1794776D01*
X4302252Y1805444D01*
X4307586Y1810778D01*
X4323588Y1816112D01*
X4334256Y1816112D01*
X4350004Y1810778D01*
X4360672Y1800110D01*
X4366006Y1784362D01*
X4366006Y1768360D01*
X4360672Y1752358D01*
X4355338Y1747024D01*
X4344924Y1741690D01*
X6029706Y1552968D02*
G01*
X6002020Y1480070D01*
X6029706Y1552968D02*
G01*
X6057391Y1480070D01*
X6012434Y1504454D02*
G01*
X6046977Y1504454D01*
X6080252Y1538998D02*
G01*
X6087109Y1542554D01*
X6097524Y1552968D01*
X6097524Y1480070D01*
X6283706Y1552968D02*
G01*
X6256020Y1480070D01*
X6283706Y1552968D02*
G01*
X6311391Y1480070D01*
X6266434Y1504454D02*
G01*
X6300977Y1504454D01*
X6337808Y1535442D02*
G01*
X6337808Y1538998D01*
X6341109Y1545856D01*
X6344665Y1549412D01*
X6351524Y1552968D01*
X6365493Y1552968D01*
X6372352Y1549412D01*
X6375908Y1545856D01*
X6379209Y1538998D01*
X6379209Y1532140D01*
X6375908Y1525282D01*
X6369050Y1514868D01*
X6334252Y1480070D01*
X6382765Y1480070D01*
X6537706Y1552968D02*
G01*
X6510020Y1480070D01*
X6537706Y1552968D02*
G01*
X6565391Y1480070D01*
X6520434Y1504454D02*
G01*
X6554977Y1504454D01*
X6595109Y1552968D02*
G01*
X6633209Y1552968D01*
X6612636Y1525282D01*
X6623050Y1525282D01*
X6629908Y1521726D01*
X6633209Y1518170D01*
X6636765Y1507756D01*
X6636765Y1500898D01*
X6633209Y1490484D01*
X6626352Y1483626D01*
X6615938Y1480070D01*
X6605524Y1480070D01*
X6595109Y1483626D01*
X6591808Y1487182D01*
X6588252Y1494040D01*
X6791706Y1552968D02*
G01*
X6764020Y1480070D01*
X6791706Y1552968D02*
G01*
X6819391Y1480070D01*
X6774434Y1504454D02*
G01*
X6808977Y1504454D01*
X6877050Y1552968D02*
G01*
X6842252Y1504454D01*
X6894322Y1504454D01*
X6877050Y1552968D02*
G01*
X6877050Y1480070D01*
X7045706Y1552968D02*
G01*
X7018020Y1480070D01*
X7045706Y1552968D02*
G01*
X7073391Y1480070D01*
X7028434Y1504454D02*
G01*
X7062977Y1504454D01*
X7137908Y1552968D02*
G01*
X7103109Y1552968D01*
X7099808Y1521726D01*
X7103109Y1525282D01*
X7113524Y1528584D01*
X7123938Y1528584D01*
X7134352Y1525282D01*
X7141209Y1518170D01*
X7144765Y1507756D01*
X7144765Y1500898D01*
X7141209Y1490484D01*
X7134352Y1483626D01*
X7123938Y1480070D01*
X7113524Y1480070D01*
X7103109Y1483626D01*
X7099808Y1487182D01*
X7096252Y1494040D01*
X5194300Y1612912D02*
G01*
X5236718Y1501406D01*
X5279390Y1612912D02*
G01*
X5236718Y1501406D01*
X5314441Y1612912D02*
G01*
X5314441Y1501406D01*
X5349493Y1612912D02*
G01*
X5349493Y1501406D01*
X5349493Y1612912D02*
G01*
X5423661Y1501406D01*
X5423661Y1612912D02*
G01*
X5423661Y1501406D01*
X4867656Y1586242D02*
G01*
X4862322Y1596910D01*
X4851654Y1607578D01*
X4840986Y1612912D01*
X4819650Y1612912D01*
X4809236Y1607578D01*
X4798568Y1596910D01*
X4793234Y1586242D01*
X4787900Y1570494D01*
X4787900Y1543824D01*
X4793234Y1527822D01*
X4798568Y1517408D01*
X4809236Y1506740D01*
X4819650Y1501406D01*
X4840986Y1501406D01*
X4851654Y1506740D01*
X4862322Y1517408D01*
X4867656Y1527822D01*
X4867656Y1543824D01*
X4840986Y1543824D02*
G01*
X4867656Y1543824D01*
X4902708Y1612912D02*
G01*
X4902708Y1501406D01*
X4902708Y1612912D02*
G01*
X4976875Y1501406D01*
X4976875Y1612912D02*
G01*
X4976875Y1501406D01*
X5011927Y1612912D02*
G01*
X5011927Y1501406D01*
X5011927Y1612912D02*
G01*
X5049265Y1612912D01*
X5065013Y1607578D01*
X5075681Y1596910D01*
X5081015Y1586242D01*
X5086350Y1570494D01*
X5086350Y1543824D01*
X5081015Y1527822D01*
X5075681Y1517408D01*
X5065013Y1506740D01*
X5049265Y1501406D01*
X5011927Y1501406D01*
X3611118Y5981712D02*
G01*
X3616452Y5971044D01*
X3632454Y5955042D01*
X3520947Y5955042D01*
X3632454Y5909576D02*
G01*
X3632454Y5851156D01*
X3590036Y5882906D01*
X3590036Y5866904D01*
X3584702Y5856490D01*
X3579368Y5851156D01*
X3563365Y5845822D01*
X3552697Y5845822D01*
X3536950Y5851156D01*
X3526281Y5861570D01*
X3520947Y5877572D01*
X3520947Y5893574D01*
X3526281Y5909576D01*
X3531615Y5914910D01*
X3542029Y5919990D01*
X3865118Y5981712D02*
G01*
X3870452Y5971044D01*
X3886454Y5955042D01*
X3774947Y5955042D01*
X3859784Y5914910D02*
G01*
X3865118Y5914910D01*
X3875786Y5909576D01*
X3881120Y5904242D01*
X3886454Y5893574D01*
X3886454Y5872238D01*
X3881120Y5861570D01*
X3875786Y5856490D01*
X3865118Y5851156D01*
X3854450Y5851156D01*
X3844036Y5856490D01*
X3828034Y5866904D01*
X3774947Y5919990D01*
X3774947Y5845822D01*
X4119118Y5981712D02*
G01*
X4124452Y5971044D01*
X4140454Y5955042D01*
X4028947Y5955042D01*
X4119118Y5919990D02*
G01*
X4124452Y5909576D01*
X4140454Y5893574D01*
X4028947Y5893574D01*
X4373118Y5981712D02*
G01*
X4378452Y5971044D01*
X4394454Y5955042D01*
X4282947Y5955042D01*
X4394454Y5888240D02*
G01*
X4389120Y5904242D01*
X4373118Y5914910D01*
X4346702Y5919990D01*
X4330700Y5919990D01*
X4304029Y5914910D01*
X4288281Y5904242D01*
X4282947Y5888240D01*
X4282947Y5877572D01*
X4288281Y5861570D01*
X4304029Y5851156D01*
X4330700Y5845822D01*
X4346702Y5845822D01*
X4373118Y5851156D01*
X4389120Y5861570D01*
X4394454Y5877572D01*
X4394454Y5888240D01*
X4611370Y5912624D02*
G01*
X4595368Y5917958D01*
X4584700Y5928626D01*
X4579365Y5944628D01*
X4579365Y5949962D01*
X4584700Y5965710D01*
X4595368Y5976378D01*
X4611370Y5981712D01*
X4616450Y5981712D01*
X4632452Y5976378D01*
X4643120Y5965710D01*
X4648454Y5949962D01*
X4648454Y5944628D01*
X4643120Y5928626D01*
X4632452Y5917958D01*
X4611370Y5912624D01*
X4584700Y5912624D01*
X4558029Y5917958D01*
X4542281Y5928626D01*
X4536947Y5944628D01*
X4536947Y5955042D01*
X4542281Y5971044D01*
X4552950Y5976378D01*
X4902454Y5955042D02*
G01*
X4897120Y5971044D01*
X4886452Y5976378D01*
X4875784Y5976378D01*
X4865370Y5971044D01*
X4860036Y5960376D01*
X4854702Y5939294D01*
X4849368Y5923292D01*
X4838700Y5912624D01*
X4828031Y5907290D01*
X4812029Y5907290D01*
X4801615Y5912624D01*
X4796281Y5917958D01*
X4790947Y5933960D01*
X4790947Y5955042D01*
X4796281Y5971044D01*
X4801615Y5976378D01*
X4812029Y5981712D01*
X4828031Y5981712D01*
X4838700Y5976378D01*
X4849368Y5965710D01*
X4854702Y5949962D01*
X4860036Y5928626D01*
X4865370Y5917958D01*
X4875784Y5912624D01*
X4886452Y5912624D01*
X4897120Y5917958D01*
X4902454Y5933960D01*
X4902454Y5955042D01*
X5308854Y5907290D02*
G01*
X5197347Y5960376D01*
X5308854Y5981712D02*
G01*
X5308854Y5907290D01*
X5546852Y5917958D02*
G01*
X5557520Y5923292D01*
X5562854Y5939294D01*
X5562854Y5949962D01*
X5557520Y5965710D01*
X5541518Y5976378D01*
X5515102Y5981712D01*
X5488431Y5981712D01*
X5467350Y5976378D01*
X5456681Y5965710D01*
X5451347Y5949962D01*
X5451347Y5944628D01*
X5456681Y5928626D01*
X5467350Y5917958D01*
X5483097Y5912624D01*
X5488431Y5912624D01*
X5504434Y5917958D01*
X5515102Y5928626D01*
X5520436Y5944628D01*
X5520436Y5949962D01*
X5515102Y5965710D01*
X5504434Y5976378D01*
X5488431Y5981712D01*
X5816854Y5917958D02*
G01*
X5816854Y5971044D01*
X5769102Y5976378D01*
X5774436Y5971044D01*
X5779770Y5955042D01*
X5779770Y5939294D01*
X5774436Y5923292D01*
X5763768Y5912624D01*
X5747765Y5907290D01*
X5737097Y5907290D01*
X5721350Y5912624D01*
X5710681Y5923292D01*
X5705347Y5939294D01*
X5705347Y5955042D01*
X5710681Y5971044D01*
X5716015Y5976378D01*
X5726429Y5981712D01*
X6070854Y5928626D02*
G01*
X5996431Y5981712D01*
X5996431Y5901956D01*
X6070854Y5928626D02*
G01*
X5959347Y5928626D01*
X6324854Y5971044D02*
G01*
X6324854Y5912624D01*
X6282436Y5944628D01*
X6282436Y5928626D01*
X6277102Y5917958D01*
X6271768Y5912624D01*
X6255765Y5907290D01*
X6245097Y5907290D01*
X6229350Y5912624D01*
X6218681Y5923292D01*
X6213347Y5939294D01*
X6213347Y5955042D01*
X6218681Y5971044D01*
X6224015Y5976378D01*
X6234429Y5981712D01*
X6552184Y5976378D02*
G01*
X6557518Y5976378D01*
X6568186Y5971044D01*
X6573520Y5965710D01*
X6578854Y5955042D01*
X6578854Y5933960D01*
X6573520Y5923292D01*
X6568186Y5917958D01*
X6557518Y5912624D01*
X6546850Y5912624D01*
X6536436Y5917958D01*
X6520434Y5928626D01*
X6467347Y5981712D01*
X6467347Y5907290D01*
X6811518Y5981712D02*
G01*
X6816852Y5971044D01*
X6832854Y5955042D01*
X6721347Y5955042D01*
X7086854Y5949962D02*
G01*
X7081520Y5965710D01*
X7065518Y5976378D01*
X7039102Y5981712D01*
X7023100Y5981712D01*
X6996429Y5976378D01*
X6980681Y5965710D01*
X6975347Y5949962D01*
X6975347Y5939294D01*
X6980681Y5923292D01*
X6996429Y5912624D01*
X7023100Y5907290D01*
X7039102Y5907290D01*
X7065518Y5912624D01*
X7081520Y5923292D01*
X7086854Y5939294D01*
X7086854Y5949962D01*
X3746500Y1530870D02*
G01*
X3858006Y1530870D01*
X3746500Y1597672D02*
G01*
X3751834Y1587258D01*
X3762502Y1576590D01*
X3773170Y1571256D01*
X3788918Y1565922D01*
X3815588Y1565922D01*
X3831590Y1571256D01*
X3842004Y1576590D01*
X3852672Y1587258D01*
X3858006Y1597672D01*
X3858006Y1619008D01*
X3852672Y1629676D01*
X3842004Y1640344D01*
X3831590Y1645678D01*
X3815588Y1651012D01*
X3788918Y1651012D01*
X3773170Y1645678D01*
X3762502Y1640344D01*
X3751834Y1629676D01*
X3746500Y1619008D01*
X3746500Y1597672D01*
X3746500Y1686064D02*
G01*
X3858006Y1686064D01*
X3746500Y1686064D02*
G01*
X3746500Y1733816D01*
X3751834Y1749564D01*
X3757168Y1754898D01*
X3767836Y1760232D01*
X3778504Y1760232D01*
X3788918Y1754898D01*
X3794252Y1749564D01*
X3799586Y1733816D01*
X3799586Y1686064D01*
X3799586Y1723148D02*
G01*
X3858006Y1760232D01*
X3746500Y1795284D02*
G01*
X3858006Y1795284D01*
X3746500Y1795284D02*
G01*
X3746500Y1864372D01*
X3799586Y1795284D02*
G01*
X3799586Y1837956D01*
X3858006Y1795284D02*
G01*
X3858006Y1864372D01*
X3746500Y1899424D02*
G01*
X3858006Y1899424D01*
X3746500Y1899424D02*
G01*
X3746500Y1968512D01*
X3799586Y1899424D02*
G01*
X3799586Y1941842D01*
X2879852Y5881890D02*
G01*
X2890520Y5892558D01*
X2895854Y5908560D01*
X2895854Y5929642D01*
X2890520Y5945644D01*
X2879852Y5956312D01*
X2869184Y5956312D01*
X2858770Y5950978D01*
X2853436Y5945644D01*
X2848102Y5934976D01*
X2837434Y5903226D01*
X2832100Y5892558D01*
X2826765Y5887224D01*
X2816097Y5881890D01*
X2800350Y5881890D01*
X2789681Y5892558D01*
X2784347Y5908560D01*
X2784347Y5929642D01*
X2789681Y5945644D01*
X2800350Y5956312D01*
X2895854Y5846838D02*
G01*
X2784347Y5846838D01*
X2895854Y5846838D02*
G01*
X2895854Y5809754D01*
X2890520Y5793752D01*
X2879852Y5783084D01*
X2869184Y5777750D01*
X2853436Y5772670D01*
X2826765Y5772670D01*
X2810763Y5777750D01*
X2800350Y5783084D01*
X2789681Y5793752D01*
X2784347Y5809754D01*
X2784347Y5846838D01*
X2895854Y5694946D02*
G01*
X2784347Y5737618D01*
X2895854Y5694946D02*
G01*
X2784347Y5652528D01*
X2821431Y5721616D02*
G01*
X2821431Y5668530D01*
X2625852Y5881890D02*
G01*
X2636520Y5892558D01*
X2641854Y5908560D01*
X2641854Y5929642D01*
X2636520Y5945644D01*
X2625852Y5956312D01*
X2615184Y5956312D01*
X2604770Y5950978D01*
X2599436Y5945644D01*
X2594102Y5934976D01*
X2583434Y5903226D01*
X2578100Y5892558D01*
X2572765Y5887224D01*
X2562097Y5881890D01*
X2546350Y5881890D01*
X2535681Y5892558D01*
X2530347Y5908560D01*
X2530347Y5929642D01*
X2535681Y5945644D01*
X2546350Y5956312D01*
X2615184Y5767336D02*
G01*
X2625852Y5772670D01*
X2636520Y5783084D01*
X2641854Y5793752D01*
X2641854Y5815088D01*
X2636520Y5825756D01*
X2625852Y5836170D01*
X2615184Y5841504D01*
X2599436Y5846838D01*
X2572765Y5846838D01*
X2556763Y5841504D01*
X2546350Y5836170D01*
X2535681Y5825756D01*
X2530347Y5815088D01*
X2530347Y5793752D01*
X2535681Y5783084D01*
X2546350Y5772670D01*
X2556763Y5767336D01*
X2641854Y5732284D02*
G01*
X2530347Y5732284D01*
X2530347Y5732284D02*
G01*
X2530347Y5668530D01*
X3501897Y1511312D02*
G01*
X3613404Y1511312D01*
X3501897Y1511312D02*
G01*
X3501897Y1559064D01*
X3507231Y1575066D01*
X3512565Y1580400D01*
X3523234Y1585734D01*
X3538981Y1585734D01*
X3549650Y1580400D01*
X3554984Y1575066D01*
X3560318Y1559064D01*
X3560318Y1511312D01*
X3501897Y1652536D02*
G01*
X3507231Y1641868D01*
X3517900Y1631454D01*
X3528568Y1626120D01*
X3544315Y1620786D01*
X3570986Y1620786D01*
X3586988Y1626120D01*
X3597402Y1631454D01*
X3608070Y1641868D01*
X3613404Y1652536D01*
X3613404Y1673872D01*
X3608070Y1684540D01*
X3597402Y1694954D01*
X3586988Y1700288D01*
X3570986Y1705622D01*
X3544315Y1705622D01*
X3528568Y1700288D01*
X3517900Y1694954D01*
X3507231Y1684540D01*
X3501897Y1673872D01*
X3501897Y1652536D01*
X3501897Y1740674D02*
G01*
X3613404Y1767344D01*
X3501897Y1793760D02*
G01*
X3613404Y1767344D01*
X3501897Y1793760D02*
G01*
X3613404Y1820430D01*
X3501897Y1846846D02*
G01*
X3613404Y1820430D01*
X3501897Y1881898D02*
G01*
X3613404Y1881898D01*
X3501897Y1881898D02*
G01*
X3501897Y1950986D01*
X3554984Y1881898D02*
G01*
X3554984Y1924570D01*
X3613404Y1881898D02*
G01*
X3613404Y1950986D01*
X3501897Y1986038D02*
G01*
X3613404Y1986038D01*
X3501897Y1986038D02*
G01*
X3501897Y2033790D01*
X3507231Y2049792D01*
X3512565Y2055126D01*
X3523234Y2060460D01*
X3533902Y2060460D01*
X3544315Y2055126D01*
X3549650Y2049792D01*
X3554984Y2033790D01*
X3554984Y1986038D01*
X3554984Y2023376D02*
G01*
X3613404Y2060460D01*
X1181100Y4129519D02*
G01*
X1181100Y4020553D01*
X1181100Y4129519D02*
G01*
X1227836Y4129519D01*
X1243329Y4124439D01*
X1248663Y4119105D01*
X1253744Y4108691D01*
X1253744Y4098277D01*
X1248663Y4087863D01*
X1243329Y4082783D01*
X1227836Y4077703D01*
X1181100Y4077703D01*
X1217421Y4077703D02*
G01*
X1253744Y4020553D01*
X1288034Y4108691D02*
G01*
X1298447Y4114025D01*
X1314195Y4129519D01*
X1314195Y4020553D01*
X2920987Y3455911D02*
G01*
X2920987Y3377933D01*
X2926067Y3362439D01*
X2936481Y3352025D01*
X2952229Y3346945D01*
X2962643Y3346945D01*
X2978137Y3352025D01*
X2988551Y3362439D01*
X2993631Y3377933D01*
X2993631Y3455911D01*
X3027921Y3435083D02*
G01*
X3038335Y3440417D01*
X3054083Y3455911D01*
X3054083Y3346945D01*
X1879600Y1804421D02*
G01*
X1879600Y1726443D01*
X1884679Y1710949D01*
X1895094Y1700535D01*
X1910842Y1695455D01*
X1921255Y1695455D01*
X1936750Y1700535D01*
X1947163Y1710949D01*
X1952243Y1726443D01*
X1952243Y1804421D01*
X1991868Y1778513D02*
G01*
X1991868Y1783593D01*
X1996947Y1794007D01*
X2002281Y1799341D01*
X2012695Y1804421D01*
X2033270Y1804421D01*
X2043684Y1799341D01*
X2049018Y1794007D01*
X2054097Y1783593D01*
X2054097Y1773179D01*
X2049018Y1762765D01*
X2038604Y1747271D01*
X1986534Y1695455D01*
X2059431Y1695455D01*
X1181100Y6351015D02*
G01*
X1181100Y6273037D01*
X1186179Y6257544D01*
X1196594Y6247129D01*
X1212342Y6242050D01*
X1222755Y6242050D01*
X1238250Y6247129D01*
X1248663Y6257544D01*
X1253744Y6273037D01*
X1253744Y6351015D01*
X1298447Y6351015D02*
G01*
X1355597Y6351015D01*
X1324610Y6309360D01*
X1340104Y6309360D01*
X1350518Y6304279D01*
X1355597Y6299200D01*
X1360931Y6283452D01*
X1360931Y6273037D01*
X1355597Y6257544D01*
X1345184Y6247129D01*
X1329689Y6242050D01*
X1314195Y6242050D01*
X1298447Y6247129D01*
X1293368Y6252210D01*
X1288034Y6262623D01*
X2992333Y2458811D02*
G01*
X2986999Y2469225D01*
X2976585Y2479639D01*
X2966425Y2484719D01*
X2945597Y2484719D01*
X2935183Y2479639D01*
X2924769Y2469225D01*
X2919435Y2458811D01*
X2914355Y2443063D01*
X2914355Y2417155D01*
X2919435Y2401661D01*
X2924769Y2391247D01*
X2935183Y2380833D01*
X2945597Y2375753D01*
X2966425Y2375753D01*
X2976585Y2380833D01*
X2986999Y2391247D01*
X2992333Y2401661D01*
X3026623Y2463891D02*
G01*
X3037037Y2469225D01*
X3052531Y2484719D01*
X3052531Y2375753D01*
X1549400Y2896615D02*
G01*
X1549400Y2787650D01*
X1549400Y2896615D02*
G01*
X1596136Y2896615D01*
X1611629Y2891536D01*
X1616963Y2886202D01*
X1622044Y2875787D01*
X1622044Y2865373D01*
X1616963Y2854960D01*
X1611629Y2849879D01*
X1596136Y2844800D01*
X1549400Y2844800D01*
X1585721Y2844800D02*
G01*
X1622044Y2787650D01*
X1661668Y2870707D02*
G01*
X1661668Y2875787D01*
X1666747Y2886202D01*
X1672081Y2891536D01*
X1682495Y2896615D01*
X1703070Y2896615D01*
X1713484Y2891536D01*
X1718818Y2886202D01*
X1723897Y2875787D01*
X1723897Y2865373D01*
X1718818Y2854960D01*
X1708404Y2839465D01*
X1656334Y2787650D01*
X1729231Y2787650D01*
G36*
X2926080Y2347112D02*
G01*
X2926029Y2047087D01*
X2937154Y2048306D01*
X2948127Y2050288D01*
X2958896Y2053082D01*
X2969463Y2056688D01*
X2979724Y2061057D01*
X2989630Y2066188D01*
X2999130Y2072030D01*
X3008172Y2078532D01*
X3016707Y2085695D01*
X3024682Y2093518D01*
X3032048Y2101850D01*
X3038754Y2110740D01*
X3044850Y2120087D01*
X3050184Y2129891D01*
X3054807Y2140051D01*
X3058668Y2150516D01*
X3061716Y2161235D01*
X3063951Y2172106D01*
X3065424Y2183180D01*
X3066034Y2194306D01*
X3065830Y2205482D01*
X3064764Y2216556D01*
X3062935Y2227580D01*
X3060293Y2238400D01*
X3056839Y2248966D01*
X3052572Y2259279D01*
X3047593Y2269286D01*
X3041904Y2278837D01*
X3035503Y2287981D01*
X3028442Y2296617D01*
X3020720Y2304694D01*
X3012490Y2312162D01*
X3003702Y2319020D01*
X2994406Y2325217D01*
X2984703Y2330704D01*
X2974644Y2335428D01*
X2964230Y2339441D01*
X2953512Y2342642D01*
X2942640Y2345029D01*
X2937154Y2345944D01*
G37*
D12*
X2692400Y1701800D02*
G01*
X2667000Y1701800D01*
X3200400Y1701800D02*
G01*
X3225800Y1701800D01*
X2692400Y1701800D02*
G01*
X2692400Y1778000D01*
X2692400Y1625600D02*
G01*
X2692400Y1701800D01*
X3200400Y1625600D02*
G01*
X2692400Y1625600D01*
X3200400Y1701800D02*
G01*
X3200400Y1625600D01*
X3200400Y1778000D02*
G01*
X3200400Y1701800D01*
X2692400Y1778000D02*
G01*
X3200400Y1778000D01*
X6680200Y2349500D02*
G01*
X6743700Y2413000D01*
X6743700Y2413000D02*
G01*
X6870700Y2413000D01*
X6870700Y2413000D02*
G01*
X6934200Y2349500D01*
X6934200Y2222500D02*
G01*
X6870700Y2159000D01*
X6870700Y2159000D02*
G01*
X6743700Y2159000D01*
X6743700Y2159000D02*
G01*
X6680200Y2222500D01*
X6235700Y2413000D02*
G01*
X6362700Y2413000D01*
X6362700Y2413000D02*
G01*
X6426200Y2349500D01*
X6426200Y2222500D02*
G01*
X6362700Y2159000D01*
X6426200Y2349500D02*
G01*
X6489700Y2413000D01*
X6489700Y2413000D02*
G01*
X6616700Y2413000D01*
X6616700Y2413000D02*
G01*
X6680200Y2349500D01*
X6680200Y2222500D02*
G01*
X6616700Y2159000D01*
X6616700Y2159000D02*
G01*
X6489700Y2159000D01*
X6489700Y2159000D02*
G01*
X6426200Y2222500D01*
X6172200Y2349500D02*
G01*
X6172200Y2222500D01*
X6235700Y2413000D02*
G01*
X6172200Y2349500D01*
X6172200Y2222500D02*
G01*
X6235700Y2159000D01*
X6362700Y2159000D02*
G01*
X6235700Y2159000D01*
X6934200Y2349500D02*
G01*
X6934200Y2222500D01*
X6667500Y2857500D02*
G01*
X6731000Y2921000D01*
X6731000Y2921000D02*
G01*
X6858000Y2921000D01*
X6858000Y2921000D02*
G01*
X6921500Y2857500D01*
X6921500Y2730500D02*
G01*
X6858000Y2667000D01*
X6858000Y2667000D02*
G01*
X6731000Y2667000D01*
X6731000Y2667000D02*
G01*
X6667500Y2730500D01*
X6223000Y2921000D02*
G01*
X6350000Y2921000D01*
X6350000Y2921000D02*
G01*
X6413500Y2857500D01*
X6413500Y2730500D02*
G01*
X6350000Y2667000D01*
X6413500Y2857500D02*
G01*
X6477000Y2921000D01*
X6477000Y2921000D02*
G01*
X6604000Y2921000D01*
X6604000Y2921000D02*
G01*
X6667500Y2857500D01*
X6667500Y2730500D02*
G01*
X6604000Y2667000D01*
X6604000Y2667000D02*
G01*
X6477000Y2667000D01*
X6477000Y2667000D02*
G01*
X6413500Y2730500D01*
X6159500Y2857500D02*
G01*
X6159500Y2730500D01*
X6223000Y2921000D02*
G01*
X6159500Y2857500D01*
X6159500Y2730500D02*
G01*
X6223000Y2667000D01*
X6350000Y2667000D02*
G01*
X6223000Y2667000D01*
X6921500Y2857500D02*
G01*
X6921500Y2730500D01*
X6680200Y3289300D02*
G01*
X6743700Y3352800D01*
X6743700Y3352800D02*
G01*
X6870700Y3352800D01*
X6870700Y3352800D02*
G01*
X6934200Y3289300D01*
X6934200Y3162300D02*
G01*
X6870700Y3098800D01*
X6870700Y3098800D02*
G01*
X6743700Y3098800D01*
X6743700Y3098800D02*
G01*
X6680200Y3162300D01*
X6235700Y3352800D02*
G01*
X6362700Y3352800D01*
X6362700Y3352800D02*
G01*
X6426200Y3289300D01*
X6426200Y3162300D02*
G01*
X6362700Y3098800D01*
X6426200Y3289300D02*
G01*
X6489700Y3352800D01*
X6489700Y3352800D02*
G01*
X6616700Y3352800D01*
X6616700Y3352800D02*
G01*
X6680200Y3289300D01*
X6680200Y3162300D02*
G01*
X6616700Y3098800D01*
X6616700Y3098800D02*
G01*
X6489700Y3098800D01*
X6489700Y3098800D02*
G01*
X6426200Y3162300D01*
X6172200Y3289300D02*
G01*
X6172200Y3162300D01*
X6235700Y3352800D02*
G01*
X6172200Y3289300D01*
X6172200Y3162300D02*
G01*
X6235700Y3098800D01*
X6362700Y3098800D02*
G01*
X6235700Y3098800D01*
X6934200Y3289300D02*
G01*
X6934200Y3162300D01*
X6680200Y3771900D02*
G01*
X6743700Y3835400D01*
X6743700Y3835400D02*
G01*
X6870700Y3835400D01*
X6870700Y3835400D02*
G01*
X6934200Y3771900D01*
X6934200Y3644900D02*
G01*
X6870700Y3581400D01*
X6870700Y3581400D02*
G01*
X6743700Y3581400D01*
X6743700Y3581400D02*
G01*
X6680200Y3644900D01*
X6235700Y3835400D02*
G01*
X6362700Y3835400D01*
X6362700Y3835400D02*
G01*
X6426200Y3771900D01*
X6426200Y3644900D02*
G01*
X6362700Y3581400D01*
X6426200Y3771900D02*
G01*
X6489700Y3835400D01*
X6489700Y3835400D02*
G01*
X6616700Y3835400D01*
X6616700Y3835400D02*
G01*
X6680200Y3771900D01*
X6680200Y3644900D02*
G01*
X6616700Y3581400D01*
X6616700Y3581400D02*
G01*
X6489700Y3581400D01*
X6489700Y3581400D02*
G01*
X6426200Y3644900D01*
X6172200Y3771900D02*
G01*
X6172200Y3644900D01*
X6235700Y3835400D02*
G01*
X6172200Y3771900D01*
X6172200Y3644900D02*
G01*
X6235700Y3581400D01*
X6362700Y3581400D02*
G01*
X6235700Y3581400D01*
X6934200Y3771900D02*
G01*
X6934200Y3644900D01*
X6680200Y4254500D02*
G01*
X6743700Y4318000D01*
X6743700Y4318000D02*
G01*
X6870700Y4318000D01*
X6870700Y4318000D02*
G01*
X6934200Y4254500D01*
X6934200Y4127500D02*
G01*
X6870700Y4064000D01*
X6870700Y4064000D02*
G01*
X6743700Y4064000D01*
X6743700Y4064000D02*
G01*
X6680200Y4127500D01*
X6235700Y4318000D02*
G01*
X6362700Y4318000D01*
X6362700Y4318000D02*
G01*
X6426200Y4254500D01*
X6426200Y4127500D02*
G01*
X6362700Y4064000D01*
X6426200Y4254500D02*
G01*
X6489700Y4318000D01*
X6489700Y4318000D02*
G01*
X6616700Y4318000D01*
X6616700Y4318000D02*
G01*
X6680200Y4254500D01*
X6680200Y4127500D02*
G01*
X6616700Y4064000D01*
X6616700Y4064000D02*
G01*
X6489700Y4064000D01*
X6489700Y4064000D02*
G01*
X6426200Y4127500D01*
X6172200Y4254500D02*
G01*
X6172200Y4127500D01*
X6235700Y4318000D02*
G01*
X6172200Y4254500D01*
X6172200Y4127500D02*
G01*
X6235700Y4064000D01*
X6362700Y4064000D02*
G01*
X6235700Y4064000D01*
X6934200Y4254500D02*
G01*
X6934200Y4127500D01*
X6616700Y4838700D02*
G01*
X6680200Y4902200D01*
X6680200Y4902200D02*
G01*
X6807200Y4902200D01*
X6807200Y4902200D02*
G01*
X6870700Y4838700D01*
X6870700Y4711700D02*
G01*
X6807200Y4648200D01*
X6807200Y4648200D02*
G01*
X6680200Y4648200D01*
X6680200Y4648200D02*
G01*
X6616700Y4711700D01*
X6172200Y4902200D02*
G01*
X6299200Y4902200D01*
X6299200Y4902200D02*
G01*
X6362700Y4838700D01*
X6362700Y4711700D02*
G01*
X6299200Y4648200D01*
X6362700Y4838700D02*
G01*
X6426200Y4902200D01*
X6426200Y4902200D02*
G01*
X6553200Y4902200D01*
X6553200Y4902200D02*
G01*
X6616700Y4838700D01*
X6616700Y4711700D02*
G01*
X6553200Y4648200D01*
X6553200Y4648200D02*
G01*
X6426200Y4648200D01*
X6426200Y4648200D02*
G01*
X6362700Y4711700D01*
X6108700Y4838700D02*
G01*
X6108700Y4711700D01*
X6172200Y4902200D02*
G01*
X6108700Y4838700D01*
X6108700Y4711700D02*
G01*
X6172200Y4648200D01*
X6299200Y4648200D02*
G01*
X6172200Y4648200D01*
X6870700Y4838700D02*
G01*
X6870700Y4711700D01*
D13*
X848360Y6413512D02*
G01*
X7200900Y6413512D01*
X7353300Y6261112D01*
X7353300Y5118112D01*
X7607300Y4864112D01*
X7607300Y1587512D01*
X7353300Y1333512D01*
X7353300Y1178572D01*
X7254240Y1079512D02*
G01*
X848360Y1079512D01*
X749300Y1181112D02*
G01*
X749300Y6314452D01*
D14*
X6756400Y5689612D02*
G01*
X6934200Y5689612D01*
X6845300Y5778512D01*
X6756400Y5689612D01*
X7200900Y5778512D02*
G01*
X7023100Y5778512D01*
X7112000Y5689612D01*
X7200900Y5778512D01*
X6794500Y5702312D02*
G01*
X6845300Y5753112D01*
X6896100Y5702312D01*
X6819900Y5702312D01*
X6858000Y5727712D01*
X7061200Y5765812D02*
G01*
X7162800Y5765812D01*
X7112000Y5715012D01*
X7073900Y5753112D01*
X7124700Y5753112D01*
X7112000Y5740412D02*
G01*
X7112000Y5727712D01*
D12*
X3009900Y6222987D02*
G01*
X3073400Y6286487D01*
X3200400Y6286487D01*
X3263900Y6222987D01*
X3327400Y6286487D01*
X3454400Y6286487D01*
X3517900Y6222987D01*
X3581400Y6286487D01*
X3708400Y6286487D01*
X3771900Y6222987D01*
X3835400Y6286487D01*
X3962400Y6286487D01*
X4025900Y6222987D01*
X4089400Y6286487D01*
X4216400Y6286487D01*
X4279900Y6222987D01*
X4343400Y6286487D01*
X4470400Y6286487D01*
X4533900Y6222987D01*
X4597400Y6286487D01*
X4724400Y6286487D01*
X4787900Y6222987D01*
X4851400Y6286487D01*
X4978400Y6286487D01*
X5041900Y6222987D01*
X5041900Y6095987D01*
X4978400Y6032487D01*
X4851400Y6032487D01*
X4787900Y6095987D01*
X4724400Y6032487D01*
X4597400Y6032487D01*
X4533900Y6095987D01*
X4470400Y6032487D01*
X4343400Y6032487D01*
X4279900Y6095987D01*
X4216400Y6032487D01*
X4089400Y6032487D01*
X4025900Y6095987D01*
X3962400Y6032487D01*
X3835400Y6032487D01*
X3771900Y6095987D01*
X3708400Y6032487D01*
X3581400Y6032487D01*
X3517900Y6095987D01*
X3454400Y6032487D01*
X3327400Y6032487D01*
X3263900Y6095987D01*
X3200400Y6032487D01*
X3073400Y6032487D01*
X3009900Y6095987D01*
X2946400Y6032487D01*
X2819400Y6032487D01*
X2755900Y6095987D01*
X2755900Y6222987D01*
X2819400Y6286487D01*
X2946400Y6286487D01*
X3009900Y6222987D01*
X3009900Y6095987D01*
X3263900Y6095987D02*
G01*
X3263900Y6222987D01*
X3517900Y6095987D02*
G01*
X3517900Y6222987D01*
X4025900Y6095987D02*
G01*
X4025900Y6222987D01*
X3771900Y6095987D02*
G01*
X3771900Y6222987D01*
X4279900Y6095987D02*
G01*
X4279900Y6222987D01*
X4787900Y6095987D02*
G01*
X4787900Y6222987D01*
X4533900Y6095987D02*
G01*
X4533900Y6222987D01*
X2755900Y6095987D02*
G01*
X2692400Y6032487D01*
X2565400Y6032487D01*
X2501900Y6095987D01*
X2501900Y6222987D01*
X2565400Y6286487D01*
X2692400Y6286487D01*
X2755900Y6222987D01*
X5702274Y6222987D02*
G01*
X5765774Y6286487D01*
X5892774Y6286487D01*
X5956274Y6222987D01*
X6019774Y6286487D01*
X6146774Y6286487D01*
X6210274Y6222987D01*
X6273774Y6286487D01*
X6400774Y6286487D01*
X6464274Y6222987D01*
X6527774Y6286487D01*
X6654774Y6286487D01*
X6718274Y6222987D01*
X6781774Y6286487D01*
X6908774Y6286487D01*
X6972274Y6222987D01*
X7035774Y6286487D01*
X7162774Y6286487D01*
X7226274Y6222987D01*
X7226274Y6095987D01*
X7162774Y6032487D01*
X7035774Y6032487D01*
X6972274Y6095987D01*
X6908774Y6032487D01*
X6781774Y6032487D01*
X6718274Y6095987D01*
X6654774Y6032487D01*
X6527774Y6032487D01*
X6464274Y6095987D01*
X6400774Y6032487D01*
X6273774Y6032487D01*
X6210274Y6095987D01*
X6146774Y6032487D01*
X6019774Y6032487D01*
X5956274Y6095987D01*
X5892774Y6032487D01*
X5765774Y6032487D01*
X5702274Y6095987D01*
X5638774Y6032487D01*
X5511774Y6032487D01*
X5448274Y6095987D01*
X5448274Y6222987D01*
X5511774Y6286487D01*
X5638774Y6286487D01*
X5702274Y6222987D01*
X5702274Y6095987D01*
X6210274Y6095987D02*
G01*
X6210274Y6222987D01*
X5956274Y6095987D02*
G01*
X5956274Y6222987D01*
X6464274Y6095987D02*
G01*
X6464274Y6222987D01*
X6972274Y6095987D02*
G01*
X6972274Y6222987D01*
X6718274Y6095987D02*
G01*
X6718274Y6222987D01*
X5448274Y6095987D02*
G01*
X5384774Y6032487D01*
X5257774Y6032487D01*
X5194274Y6095987D01*
X5194274Y6222987D01*
X5257774Y6286487D01*
X5384774Y6286487D01*
X5448274Y6222987D01*
X6464300Y1270012D02*
G01*
X6400800Y1206512D01*
X6273800Y1206512D01*
X6210300Y1270012D01*
X6146800Y1206512D01*
X6019800Y1206512D01*
X5956300Y1270012D01*
X5892800Y1206512D01*
X5765800Y1206512D01*
X5702300Y1270012D01*
X5702300Y1397012D01*
X5765800Y1460512D01*
X5892800Y1460512D01*
X5956300Y1397012D01*
X6019800Y1460512D01*
X6146800Y1460512D01*
X6210300Y1397012D01*
X6273800Y1460512D01*
X6400800Y1460512D01*
X6464300Y1397012D01*
X6527800Y1460512D01*
X6654800Y1460512D01*
X6718300Y1397012D01*
X6718300Y1270012D01*
X6654800Y1206512D01*
X6527800Y1206512D01*
X6464300Y1270012D01*
X6464300Y1397012D01*
X6718300Y1397012D02*
G01*
X6781800Y1460512D01*
X6908800Y1460512D01*
X6972300Y1397012D01*
X6972300Y1270012D01*
X6908800Y1206512D01*
X6781800Y1206512D01*
X6718300Y1270012D01*
X5956300Y1397012D02*
G01*
X5956300Y1270012D01*
X6210300Y1397012D02*
G01*
X6210300Y1270012D01*
X6972300Y1397012D02*
G01*
X7035800Y1460512D01*
X7162800Y1460512D01*
X7226300Y1397012D01*
X7226300Y1270012D01*
X7162800Y1206512D01*
X7035800Y1206512D01*
X6972300Y1270012D01*
X4940300Y1270012D02*
G01*
X4876800Y1206512D01*
X4749800Y1206512D01*
X4686300Y1270012D01*
X4622800Y1206512D01*
X4495800Y1206512D01*
X4432300Y1270012D01*
X4368800Y1206512D01*
X4241800Y1206512D01*
X4178300Y1270012D01*
X4114800Y1206512D01*
X3987800Y1206512D01*
X3924300Y1270012D01*
X3860800Y1206512D01*
X3733800Y1206512D01*
X3670300Y1270012D01*
X3606800Y1206512D01*
X3479800Y1206512D01*
X3416300Y1270012D01*
X3416300Y1397012D01*
X3479800Y1460512D01*
X3606800Y1460512D01*
X3670300Y1397012D01*
X3733800Y1460512D01*
X3860800Y1460512D01*
X3924300Y1397012D01*
X3987800Y1460512D01*
X4114800Y1460512D01*
X4178300Y1397012D01*
X4241800Y1460512D01*
X4368800Y1460512D01*
X4432300Y1397012D01*
X4495800Y1460512D01*
X4622800Y1460512D01*
X4686300Y1397012D01*
X4749800Y1460512D01*
X4876800Y1460512D01*
X4940300Y1397012D01*
X5003800Y1460512D01*
X5130800Y1460512D01*
X5194300Y1397012D01*
X5194300Y1270012D01*
X5130800Y1206512D01*
X5003800Y1206512D01*
X4940300Y1270012D01*
X4940300Y1397012D01*
X4432300Y1397012D02*
G01*
X4432300Y1270012D01*
X4686300Y1397012D02*
G01*
X4686300Y1270012D01*
X4178300Y1397012D02*
G01*
X4178300Y1270012D01*
X3670300Y1397012D02*
G01*
X3670300Y1270012D01*
X3924300Y1397012D02*
G01*
X3924300Y1270012D01*
X5194300Y1397012D02*
G01*
X5257800Y1460512D01*
X5384800Y1460512D01*
X5448300Y1397012D01*
X5448300Y1270012D01*
X5384800Y1206512D01*
X5257800Y1206512D01*
X5194300Y1270012D01*
X1320800Y3785603D02*
G01*
X1358900Y3785603D01*
X1397000Y3785603D01*
X1358900Y3785603D01*
X1438803Y3980200D02*
G01*
X1438803Y3030199D01*
X1438803Y3980200D02*
G01*
X948796Y3980200D01*
X943800Y3980200D01*
X943800Y3930700D01*
X993800Y3930700D01*
X993800Y3930700D01*
X993800Y3079699D01*
X993800Y3079699D01*
X943800Y3079699D01*
X943800Y3029666D01*
X948796Y3029666D01*
X1438803Y3029666D01*
X2403586Y3268502D02*
G01*
X3463787Y3268502D01*
X3463787Y2788693D01*
X2403586Y2788693D01*
X2403586Y3267994D01*
X2403586Y3268502D01*
X3463683Y3208586D02*
G01*
X2403690Y3208586D01*
X1985484Y1944298D02*
G01*
X1702965Y1944298D01*
X2157834Y1944298D02*
G01*
X1985484Y1944298D01*
X1728495Y2471788D02*
G01*
X2132304Y2471788D01*
X2230399Y2348745D02*
G01*
X2230399Y2139850D01*
X1630400Y2139850D02*
G01*
X1630400Y2348745D01*
X927100Y6197600D02*
G01*
X1435100Y6197600D01*
X1435100Y4940300D01*
X927100Y4940300D01*
X927100Y6197600D01*
D15*
X2855998Y2292098D02*
G01*
X2905998Y2292098D01*
X2881000Y2267099D02*
G01*
X2881000Y2317099D01*
D12*
X1295400Y2654300D02*
G01*
X1270000Y2654300D01*
X1803400Y2654300D02*
G01*
X1828800Y2654300D01*
X1295400Y2654300D02*
G01*
X1295400Y2730500D01*
X1295400Y2578100D02*
G01*
X1295400Y2654300D01*
X1803400Y2578100D02*
G01*
X1295400Y2578100D01*
X1803400Y2654300D02*
G01*
X1803400Y2578100D01*
X1803400Y2730500D02*
G01*
X1803400Y2654300D01*
X1295400Y2730500D02*
G01*
X1803400Y2730500D01*
D13*
G75*
G01*
X7353300Y1179589D02*
G02*
X7253224Y1079513I-100076J0D01*
G75*
G01*
X849376Y1079513D02*
G02*
X749300Y1179589I0J100076D01*
G75*
G01*
X749300Y6313437D02*
G02*
X849376Y6413513I100076J0D01*
D12*
G75*
G01*
X1412748Y3785603D02*
G03*
X1412748Y3784587I-53879J-508D01*
D16*
G75*
G01*
X2656690Y2726096D02*
G03*
X2656944Y2726096I127J-20000D01*
D12*
G75*
G01
X1786230Y2091385D02*
G03X1786230Y2091385I-43002J0D01*
G75*
G01
X2163394Y2394280D02*
G03X2163394Y2394280I-43002J0D01*
G75*
G01
X2163597Y2094128D02*
G03X2163597Y2094128I-43002J0D01*
G75*
G01
X1783613Y2394128D02*
G03X1783613Y2394128I-43002J0D01*
G75*
G01
X2065503Y2244293D02*
G03X2065503Y2244293I-135103J0D01*
G75*
G01
X3071063Y2197100D02*
G03X3071063Y2197100I-150012J0D01*
M02*
